<svg width="35" height="35" viewBox="0 0 35 35" fill="none" xmlns="http://www.w3.org/2000/svg">
<path d="M30.3914 6.72289C29.6466 5.97769 28.7622 5.38654 27.7888 4.98322C26.8154 4.5799 25.7721 4.37231 24.7185 4.37231C23.6649 4.37231 22.6216 4.5799 21.6482 4.98322C20.6748 5.38654 19.7905 5.97769 19.0456 6.72289L17.4998 8.26873L15.9539 6.72289C14.4494 5.21834 12.4088 4.37309 10.281 4.37309C8.15326 4.37309 6.11265 5.21834 4.6081 6.72289C3.10355 8.22744 2.2583 10.2681 2.2583 12.3958C2.2583 14.5236 3.10355 16.5642 4.6081 18.0687L17.4998 30.9604L30.3914 18.0687C31.1366 17.3239 31.7278 16.4395 32.1311 15.4661C32.5344 14.4927 32.742 13.4494 32.742 12.3958C32.742 11.3422 32.5344 10.2989 32.1311 9.3255C31.7278 8.35212 31.1366 7.46775 30.3914 6.72289Z" stroke="#1E1E1E" stroke-width="3" stroke-linecap="round" stroke-linejoin="round"/>
</svg>
