<svg width="70" height="70" viewBox="0 0 70 70" fill="none" xmlns="http://www.w3.org/2000/svg">
<path d="M17.0627 49.875C19.5418 47.9792 22.3127 46.4844 25.3752 45.3907C28.4377 44.2969 31.646 43.75 35.0002 43.75C38.3543 43.75 41.5627 44.2969 44.6252 45.3907C47.6877 46.4844 50.4585 47.9792 52.9377 49.875C54.639 47.882 55.9637 45.6216 56.9116 43.0938C57.8595 40.566 58.3335 37.8681 58.3335 35C58.3335 28.5348 56.0609 23.0296 51.5158 18.4844C46.9706 13.9393 41.4654 11.6667 35.0002 11.6667C28.5349 11.6667 23.0297 13.9393 18.4845 18.4844C13.9394 23.0296 11.6668 28.5348 11.6668 35C11.6668 37.8681 12.1408 40.566 13.0887 43.0938C14.0366 45.6216 15.3613 47.882 17.0627 49.875ZM35.0002 37.9167C32.1321 37.9167 29.7137 36.9323 27.745 34.9636C25.7762 32.9948 24.7918 30.5764 24.7918 27.7084C24.7918 24.8403 25.7762 22.4219 27.745 20.4532C29.7137 18.4844 32.1321 17.5 35.0002 17.5C37.8682 17.5 40.2866 18.4844 42.2554 20.4532C44.2241 22.4219 45.2085 24.8403 45.2085 27.7084C45.2085 30.5764 44.2241 32.9948 42.2554 34.9636C40.2866 36.9323 37.8682 37.9167 35.0002 37.9167ZM35.0002 64.1667C30.9654 64.1667 27.1738 63.4011 23.6252 61.8698C20.0766 60.3386 16.9897 58.2605 14.3647 55.6355C11.7397 53.0105 9.66162 49.9237 8.13037 46.375C6.59912 42.8264 5.8335 39.0348 5.8335 35C5.8335 30.9653 6.59912 27.1737 8.13037 23.625C9.66162 20.0764 11.7397 16.9896 14.3647 14.3646C16.9897 11.7396 20.0766 9.6615 23.6252 8.13025C27.1738 6.599 30.9654 5.83337 35.0002 5.83337C39.0349 5.83337 42.8266 6.599 46.3752 8.13025C49.9238 9.6615 53.0106 11.7396 55.6356 14.3646C58.2606 16.9896 60.3387 20.0764 61.87 23.625C63.4012 27.1737 64.1668 30.9653 64.1668 35C64.1668 39.0348 63.4012 42.8264 61.87 46.375C60.3387 49.9237 58.2606 53.0105 55.6356 55.6355C53.0106 58.2605 49.9238 60.3386 46.3752 61.8698C42.8266 63.4011 39.0349 64.1667 35.0002 64.1667Z" fill="#1D1B20"/>
</svg>
